# xmcd
#
# Track frame offsets:
#	150
#	17907
#	28926
#	46683
#	62134
#	74603
#	88877
#	102747
#	115410
#	132650
#
# Disc length: 1978 seconds
#
# Revision: 0
# Processed by: cddbd v1.5.1PL0 Copyright (c) Steve Scherf et al.
# Submitted via: dBpowerAMP V4.0
#
DISCID=9a07b80a
DTITLE=Mark Chesnutt - Longnecks And Short Stories
DYEAR=1992
DGENRE=Country
TTITLE0=Old Country
TTITLE1=Old Flames Have New Names
TTITLE2=I'll Think Of Something
TTITLE3=It's Not Over ( If I'm Not Over You )
TTITLE4=Uptown Downtown ( Misery's All The Same )
TTITLE5=Bubba Shot The Jukebox
TTITLE6=Postpone The Pain
TTITLE7=Talking To Hank  with George Jones
TTITLE8=I'm Not Getting Any Better At Goodbyes
TTITLE9=Who Will The Next Fool Be
EXTD=
EXTT0=
EXTT1=
EXTT2=
EXTT3=
EXTT4=
EXTT5=
EXTT6=
EXTT7=
EXTT8=
EXTT9=
PLAYORDER=
